<svg xmlns="http://www.w3.org/2000/svg" version="1.1" xmlns:xlink="http://www.w3.org/1999/xlink" xmlns:svgjs="http://svgjs.dev/svgjs" width="1440" height="560" preserveAspectRatio="none" viewBox="0 0 1440 560"><g mask="url(&quot;#SvgjsMask1651&quot;)" fill="none"><rect width="1440" height="560" x="0" y="0" fill="url(&quot;#SvgjsLinearGradient1652&quot;)"></rect><path d="M1315 7L1314 -391" stroke-width="6" stroke="url(&quot;#SvgjsLinearGradient1653&quot;)" stroke-linecap="round" class="Up"></path><path d="M428 37L427 346" stroke-width="8" stroke="url(&quot;#SvgjsLinearGradient1654&quot;)" stroke-linecap="round" class="Down"></path><path d="M965 243L964 434" stroke-width="8" stroke="url(&quot;#SvgjsLinearGradient1654&quot;)" stroke-linecap="round" class="Down"></path><path d="M1074 489L1073 194" stroke-width="10" stroke="url(&quot;#SvgjsLinearGradient1653&quot;)" stroke-linecap="round" class="Up"></path><path d="M259 300L258 -52" stroke-width="8" stroke="url(&quot;#SvgjsLinearGradient1654&quot;)" stroke-linecap="round" class="Down"></path><path d="M1025 557L1024 253" stroke-width="10" stroke="url(&quot;#SvgjsLinearGradient1653&quot;)" stroke-linecap="round" class="Up"></path><path d="M1040 16L1039 216" stroke-width="8" stroke="url(&quot;#SvgjsLinearGradient1653&quot;)" stroke-linecap="round" class="Up"></path><path d="M732 241L731 383" stroke-width="6" stroke="url(&quot;#SvgjsLinearGradient1654&quot;)" stroke-linecap="round" class="Down"></path><path d="M708 41L707 332" stroke-width="10" stroke="url(&quot;#SvgjsLinearGradient1653&quot;)" stroke-linecap="round" class="Up"></path><path d="M722 323L721 535" stroke-width="10" stroke="url(&quot;#SvgjsLinearGradient1653&quot;)" stroke-linecap="round" class="Up"></path><path d="M1263 451L1262 284" stroke-width="8" stroke="url(&quot;#SvgjsLinearGradient1654&quot;)" stroke-linecap="round" class="Down"></path><path d="M679 190L678 39" stroke-width="10" stroke="url(&quot;#SvgjsLinearGradient1654&quot;)" stroke-linecap="round" class="Down"></path><path d="M655 298L654 -14" stroke-width="8" stroke="url(&quot;#SvgjsLinearGradient1654&quot;)" stroke-linecap="round" class="Down"></path><path d="M1027 498L1026 877" stroke-width="10" stroke="url(&quot;#SvgjsLinearGradient1653&quot;)" stroke-linecap="round" class="Up"></path><path d="M1387 290L1386 664" stroke-width="8" stroke="url(&quot;#SvgjsLinearGradient1653&quot;)" stroke-linecap="round" class="Up"></path><path d="M1297 149L1296 474" stroke-width="6" stroke="url(&quot;#SvgjsLinearGradient1654&quot;)" stroke-linecap="round" class="Down"></path><path d="M1026 15L1025 190" stroke-width="8" stroke="url(&quot;#SvgjsLinearGradient1654&quot;)" stroke-linecap="round" class="Down"></path><path d="M1351 135L1350 352" stroke-width="6" stroke="url(&quot;#SvgjsLinearGradient1654&quot;)" stroke-linecap="round" class="Down"></path><path d="M728 411L727 267" stroke-width="6" stroke="url(&quot;#SvgjsLinearGradient1653&quot;)" stroke-linecap="round" class="Up"></path><path d="M247 265L246 -81" stroke-width="10" stroke="url(&quot;#SvgjsLinearGradient1654&quot;)" stroke-linecap="round" class="Down"></path><path d="M857 356L856 558" stroke-width="8" stroke="url(&quot;#SvgjsLinearGradient1654&quot;)" stroke-linecap="round" class="Down"></path><path d="M107 379L106 18" stroke-width="10" stroke="url(&quot;#SvgjsLinearGradient1654&quot;)" stroke-linecap="round" class="Down"></path><path d="M254 291L253 569" stroke-width="10" stroke="url(&quot;#SvgjsLinearGradient1654&quot;)" stroke-linecap="round" class="Down"></path><path d="M1096 165L1095 25" stroke-width="10" stroke="url(&quot;#SvgjsLinearGradient1653&quot;)" stroke-linecap="round" class="Up"></path><path d="M1014 397L1013 81" stroke-width="10" stroke="url(&quot;#SvgjsLinearGradient1653&quot;)" stroke-linecap="round" class="Up"></path><path d="M420 514L419 143" stroke-width="10" stroke="url(&quot;#SvgjsLinearGradient1654&quot;)" stroke-linecap="round" class="Down"></path><path d="M1164 111L1163 298" stroke-width="8" stroke="url(&quot;#SvgjsLinearGradient1654&quot;)" stroke-linecap="round" class="Down"></path><path d="M917 298L916 -14" stroke-width="10" stroke="url(&quot;#SvgjsLinearGradient1653&quot;)" stroke-linecap="round" class="Up"></path><path d="M1225 386L1224 690" stroke-width="10" stroke="url(&quot;#SvgjsLinearGradient1653&quot;)" stroke-linecap="round" class="Up"></path><path d="M157 451L156 276" stroke-width="10" stroke="url(&quot;#SvgjsLinearGradient1654&quot;)" stroke-linecap="round" class="Down"></path><path d="M1251 152L1250 457" stroke-width="8" stroke="url(&quot;#SvgjsLinearGradient1654&quot;)" stroke-linecap="round" class="Down"></path><path d="M35 325L34 -69" stroke-width="10" stroke="url(&quot;#SvgjsLinearGradient1653&quot;)" stroke-linecap="round" class="Up"></path><path d="M53 467L52 625" stroke-width="8" stroke="url(&quot;#SvgjsLinearGradient1653&quot;)" stroke-linecap="round" class="Up"></path><path d="M119 240L118 -141" stroke-width="10" stroke="url(&quot;#SvgjsLinearGradient1654&quot;)" stroke-linecap="round" class="Down"></path><path d="M833 25L832 -302" stroke-width="6" stroke="url(&quot;#SvgjsLinearGradient1653&quot;)" stroke-linecap="round" class="Up"></path><path d="M316 415L315 181" stroke-width="6" stroke="url(&quot;#SvgjsLinearGradient1653&quot;)" stroke-linecap="round" class="Up"></path></g><defs><mask id="SvgjsMask1651"><rect width="1440" height="560" fill="#ffffff"></rect></mask><linearGradient x1="15.28%" y1="-39.29%" x2="84.72%" y2="139.29%" gradientUnits="userSpaceOnUse" id="SvgjsLinearGradient1652"><stop stop-color="rgba(14, 42, 71, 1)" offset="0.3"></stop><stop stop-color="rgba(0, 78, 158, 1)" offset="1"></stop></linearGradient><linearGradient x1="0%" y1="100%" x2="0%" y2="0%" id="SvgjsLinearGradient1653"><stop stop-color="rgba(28, 83, 142, 0)" offset="0"></stop><stop stop-color="#1c538e" offset="1"></stop></linearGradient><linearGradient x1="0%" y1="0%" x2="0%" y2="100%" id="SvgjsLinearGradient1654"><stop stop-color="rgba(28, 83, 142, 0)" offset="0"></stop><stop stop-color="#1c538e" offset="1"></stop></linearGradient></defs></svg>